<?xml version="1.0" encoding="UTF-8"?>
<svg xmlns="http://www.w3.org/2000/svg" xmlns:xlink="http://www.w3.org/1999/xlink" width="523.9" height="201.2" viewBox="21.51 182.73 523.91 201.22">
<path fill-rule="nonzero" fill="rgb(40.559387%, 40.957642%, 50.700378%)" fill-opacity="1" d="M 28.34375 374.082031 L 28.34375 336 L 35.179688 336 L 35.179688 338.351562 L 31.003906 338.351562 L 31.003906 371.730469 L 35.179688 371.730469 L 35.179688 374.082031 Z M 28.34375 374.082031 "/>
<path fill-rule="nonzero" fill="rgb(40.559387%, 40.957642%, 50.700378%)" fill-opacity="1" d="M 53.660156 366.164062 C 55.078125 366.164062 56.316406 365.789062 57.375 365.039062 C 58.429688 364.289062 59.25 363.234375 59.828125 361.875 C 60.410156 360.519531 60.699219 358.933594 60.699219 357.117188 C 60.699219 355.304688 60.410156 353.71875 59.828125 352.371094 C 59.25 351.019531 58.433594 349.972656 57.382812 349.230469 C 56.332031 348.484375 55.089844 348.113281 53.660156 348.113281 C 52.199219 348.113281 50.941406 348.488281 49.882812 349.238281 C 48.824219 349.988281 48.015625 351.039062 47.449219 352.390625 C 46.882812 353.742188 46.597656 355.316406 46.597656 357.117188 C 46.597656 358.90625 46.886719 360.480469 47.457031 361.84375 C 48.03125 363.210938 48.84375 364.269531 49.894531 365.027344 C 50.945312 365.785156 52.199219 366.164062 53.660156 366.164062 M 54.007812 368.617188 C 52.808594 368.617188 51.734375 368.410156 50.792969 367.992188 C 49.851562 367.578125 49.054688 367.019531 48.390625 366.316406 C 47.730469 365.613281 47.207031 364.847656 46.824219 364.015625 L 46.660156 364.015625 L 46.660156 368.1875 L 44.042969 368.1875 L 44.042969 337.699219 L 46.722656 337.699219 L 46.722656 350.242188 L 46.84375 350.242188 C 47.199219 349.410156 47.703125 348.648438 48.359375 347.960938 C 49.015625 347.273438 49.8125 346.71875 50.765625 346.300781 C 51.710938 345.886719 52.792969 345.679688 54.007812 345.679688 C 55.863281 345.679688 57.496094 346.15625 58.910156 347.113281 C 60.320312 348.066406 61.425781 349.402344 62.222656 351.121094 C 63.019531 352.84375 63.421875 354.847656 63.421875 357.136719 C 63.421875 359.417969 63.023438 361.417969 62.234375 363.144531 C 61.441406 364.871094 60.339844 366.214844 58.929688 367.175781 C 57.515625 368.136719 55.875 368.617188 54.007812 368.617188 "/>
<path fill-rule="nonzero" fill="rgb(40.559387%, 40.957642%, 50.700378%)" fill-opacity="1" d="M 80.675781 366.183594 C 82.191406 366.183594 83.484375 365.792969 84.5625 365.015625 C 85.640625 364.238281 86.46875 363.167969 87.050781 361.804688 C 87.628906 360.441406 87.921875 358.890625 87.921875 357.160156 C 87.921875 355.425781 87.628906 353.878906 87.050781 352.511719 C 86.46875 351.148438 85.640625 350.070312 84.5625 349.28125 C 83.484375 348.488281 82.191406 348.09375 80.675781 348.09375 C 79.175781 348.09375 77.882812 348.488281 76.796875 349.28125 C 75.710938 350.070312 74.882812 351.148438 74.300781 352.511719 C 73.722656 353.878906 73.429688 355.425781 73.429688 357.160156 C 73.429688 358.890625 73.722656 360.441406 74.300781 361.804688 C 74.882812 363.167969 75.707031 364.238281 76.789062 365.015625 C 77.863281 365.792969 79.160156 366.183594 80.675781 366.183594 M 80.675781 368.660156 C 78.710938 368.660156 76.980469 368.167969 75.476562 367.1875 C 73.976562 366.203125 72.808594 364.851562 71.96875 363.125 C 71.128906 361.398438 70.710938 359.410156 70.710938 357.160156 C 70.710938 354.90625 71.128906 352.917969 71.96875 351.183594 C 72.808594 349.449219 73.976562 348.09375 75.476562 347.113281 C 76.980469 346.128906 78.710938 345.636719 80.675781 345.636719 C 82.640625 345.636719 84.367188 346.128906 85.863281 347.113281 C 87.355469 348.09375 88.523438 349.449219 89.371094 351.183594 C 90.21875 352.917969 90.640625 354.90625 90.640625 357.160156 C 90.640625 359.410156 90.222656 361.398438 89.382812 363.125 C 88.542969 364.851562 87.375 366.203125 85.875 367.1875 C 84.371094 368.167969 82.640625 368.660156 80.675781 368.660156 "/>
<path fill-rule="nonzero" fill="rgb(40.559387%, 40.957642%, 50.700378%)" fill-opacity="1" d="M 99.9375 340.316406 L 102.636719 340.316406 L 102.636719 363.09375 C 102.636719 364.101562 102.859375 364.832031 103.300781 365.285156 C 103.746094 365.734375 104.464844 365.9375 105.464844 365.894531 C 105.707031 365.894531 105.988281 365.886719 106.300781 365.867188 C 106.613281 365.84375 106.902344 365.820312 107.160156 365.792969 L 107.425781 368.148438 C 107.113281 368.1875 106.773438 368.222656 106.402344 368.25 C 106.035156 368.277344 105.679688 368.292969 105.339844 368.292969 C 103.59375 368.347656 102.257812 367.9375 101.328125 367.0625 C 100.402344 366.191406 99.9375 364.933594 99.9375 363.296875 Z M 107.222656 348.359375 L 96.378906 348.359375 L 96.378906 346.007812 L 107.222656 346.007812 Z M 107.222656 348.359375 "/>
<path fill-rule="nonzero" fill="rgb(40.559387%, 40.957642%, 50.700378%)" fill-opacity="1" d="M 115.082031 340.316406 L 117.78125 340.316406 L 117.78125 363.09375 C 117.78125 364.101562 118.003906 364.832031 118.449219 365.285156 C 118.890625 365.734375 119.609375 365.9375 120.609375 365.894531 C 120.851562 365.894531 121.132812 365.886719 121.449219 365.867188 C 121.757812 365.84375 122.046875 365.820312 122.308594 365.792969 L 122.570312 368.148438 C 122.257812 368.1875 121.917969 368.222656 121.550781 368.25 C 121.179688 368.277344 120.828125 368.292969 120.484375 368.292969 C 118.738281 368.347656 117.402344 367.9375 116.472656 367.0625 C 115.546875 366.191406 115.082031 364.933594 115.082031 363.296875 Z M 122.367188 348.359375 L 111.523438 348.359375 L 111.523438 346.007812 L 122.367188 346.007812 Z M 122.367188 348.359375 "/>
<path fill-rule="nonzero" fill="rgb(40.559387%, 40.957642%, 50.700378%)" fill-opacity="1" d="M 138.640625 368.660156 C 136.550781 368.660156 134.753906 368.164062 133.234375 367.175781 C 131.722656 366.1875 130.558594 364.828125 129.734375 363.101562 C 128.917969 361.378906 128.511719 359.402344 128.511719 357.179688 C 128.511719 354.941406 128.925781 352.957031 129.757812 351.222656 C 130.589844 349.492188 131.746094 348.128906 133.226562 347.132812 C 134.707031 346.136719 136.414062 345.636719 138.351562 345.636719 C 139.71875 345.636719 140.988281 345.890625 142.167969 346.394531 C 143.347656 346.898438 144.378906 347.636719 145.257812 348.605469 C 146.140625 349.574219 146.824219 350.75 147.3125 352.136719 C 147.804688 353.519531 148.050781 355.097656 148.050781 356.871094 L 148.050781 357.855469 L 130.085938 357.855469 L 130.085938 355.5 L 146.558594 355.5 L 145.371094 356.320312 C 145.371094 354.710938 145.082031 353.285156 144.5 352.042969 C 143.921875 350.800781 143.109375 349.828125 142.054688 349.125 C 141.007812 348.425781 139.773438 348.074219 138.351562 348.074219 C 136.917969 348.074219 135.667969 348.433594 134.597656 349.148438 C 133.527344 349.863281 132.691406 350.84375 132.089844 352.09375 C 131.488281 353.34375 131.1875 354.757812 131.1875 356.339844 L 131.1875 357.507812 C 131.1875 359.226562 131.496094 360.742188 132.101562 362.050781 C 132.707031 363.359375 133.570312 364.378906 134.679688 365.109375 C 135.792969 365.839844 137.109375 366.203125 138.640625 366.203125 C 139.71875 366.203125 140.683594 366.023438 141.535156 365.660156 C 142.386719 365.300781 143.105469 364.804688 143.683594 364.179688 C 144.261719 363.550781 144.6875 362.839844 144.960938 362.050781 L 147.601562 362.417969 C 147.277344 363.605469 146.695312 364.667969 145.863281 365.609375 C 145.03125 366.550781 144 367.296875 142.773438 367.839844 C 141.546875 368.386719 140.167969 368.660156 138.640625 368.660156 "/>
<path fill-rule="nonzero" fill="rgb(40.559387%, 40.957642%, 50.700378%)" fill-opacity="1" d="M 165.023438 365.855469 C 166.464844 365.855469 167.71875 365.496094 168.777344 364.78125 C 169.835938 364.066406 170.644531 363.050781 171.214844 361.734375 C 171.777344 360.414062 172.0625 358.855469 172.0625 357.054688 C 172.0625 355.285156 171.777344 353.722656 171.214844 352.382812 C 170.644531 351.039062 169.835938 349.988281 168.785156 349.238281 C 167.738281 348.488281 166.480469 348.113281 165.023438 348.113281 C 163.589844 348.113281 162.34375 348.484375 161.289062 349.230469 C 160.230469 349.972656 159.410156 351.015625 158.832031 352.351562 C 158.253906 353.6875 157.960938 355.253906 157.960938 357.054688 C 157.960938 358.871094 158.253906 360.433594 158.84375 361.742188 C 159.425781 363.050781 160.25 364.066406 161.304688 364.78125 C 162.363281 365.496094 163.601562 365.855469 165.023438 365.855469 M 165.203125 377.113281 C 163.609375 377.113281 162.199219 376.878906 160.96875 376.414062 C 159.742188 375.953125 158.730469 375.292969 157.933594 374.441406 C 157.132812 373.585938 156.578125 372.582031 156.261719 371.421875 L 158.78125 370.789062 C 159.050781 371.550781 159.464844 372.226562 160.015625 372.8125 C 160.570312 373.398438 161.277344 373.859375 162.136719 374.195312 C 162.996094 374.527344 164.019531 374.695312 165.203125 374.695312 C 167.292969 374.695312 168.941406 374.15625 170.148438 373.078125 C 171.355469 372.003906 171.957031 370.433594 171.957031 368.375 L 171.957031 363.832031 L 171.816406 363.832031 C 171.433594 364.664062 170.910156 365.414062 170.25 366.089844 C 169.589844 366.765625 168.789062 367.300781 167.855469 367.699219 C 166.921875 368.09375 165.847656 368.289062 164.632812 368.289062 C 162.804688 368.289062 161.179688 367.832031 159.761719 366.910156 C 158.34375 365.988281 157.238281 364.691406 156.4375 363.011719 C 155.640625 361.332031 155.242188 359.355469 155.242188 357.078125 C 155.242188 354.8125 155.640625 352.824219 156.4375 351.113281 C 157.238281 349.398438 158.34375 348.066406 159.761719 347.113281 C 161.179688 346.15625 162.820312 345.679688 164.675781 345.679688 C 165.886719 345.679688 166.964844 345.882812 167.90625 346.292969 C 168.847656 346.703125 169.652344 347.257812 170.324219 347.960938 C 170.992188 348.664062 171.511719 349.445312 171.878906 350.304688 L 172 350.304688 L 172 346.003906 L 174.636719 346.003906 L 174.636719 368.433594 C 174.636719 370.414062 174.226562 372.042969 173.402344 373.324219 C 172.578125 374.609375 171.453125 375.558594 170.035156 376.179688 C 168.613281 376.800781 167.003906 377.113281 165.203125 377.113281 "/>
<path fill-rule="nonzero" fill="rgb(40.559387%, 40.957642%, 50.700378%)" fill-opacity="1" d="M 190.914062 366.164062 C 192.332031 366.164062 193.539062 365.878906 194.542969 365.304688 C 195.546875 364.730469 196.316406 363.945312 196.855469 362.949219 C 197.394531 361.953125 197.664062 360.835938 197.664062 359.59375 L 197.664062 356.464844 C 197.472656 356.640625 197.171875 356.800781 196.765625 356.945312 C 196.355469 357.085938 195.875 357.214844 195.320312 357.324219 C 194.769531 357.433594 194.183594 357.535156 193.5625 357.628906 C 192.941406 357.726562 192.335938 357.808594 191.753906 357.875 C 190.507812 358.039062 189.441406 358.285156 188.546875 358.609375 C 187.65625 358.941406 186.96875 359.382812 186.492188 359.941406 C 186.015625 360.5 185.777344 361.226562 185.777344 362.113281 C 185.777344 362.96875 185.996094 363.703125 186.4375 364.3125 C 186.882812 364.917969 187.492188 365.378906 188.261719 365.691406 C 189.03125 366.007812 189.914062 366.164062 190.914062 366.164062 M 190.542969 368.597656 C 189.167969 368.597656 187.910156 368.347656 186.777344 367.851562 C 185.644531 367.351562 184.742188 366.609375 184.066406 365.621094 C 183.390625 364.632812 183.054688 363.421875 183.054688 361.988281 C 183.054688 360.855469 183.269531 359.914062 183.695312 359.164062 C 184.128906 358.414062 184.730469 357.800781 185.511719 357.324219 C 186.285156 356.84375 187.210938 356.46875 188.28125 356.199219 C 189.351562 355.925781 190.53125 355.707031 191.8125 355.542969 C 193.121094 355.363281 194.210938 355.214844 195.074219 355.089844 C 195.941406 354.96875 196.589844 354.777344 197.019531 354.519531 C 197.449219 354.261719 197.664062 353.84375 197.664062 353.273438 L 197.664062 352.859375 C 197.664062 351.90625 197.445312 351.070312 197.007812 350.355469 C 196.574219 349.636719 195.949219 349.078125 195.140625 348.675781 C 194.328125 348.273438 193.363281 348.074219 192.242188 348.074219 C 191.148438 348.074219 190.183594 348.257812 189.335938 348.625 C 188.488281 348.992188 187.804688 349.488281 187.277344 350.109375 C 186.753906 350.730469 186.414062 351.414062 186.265625 352.164062 L 183.605469 351.757812 C 183.863281 350.488281 184.402344 349.398438 185.214844 348.492188 C 186.027344 347.585938 187.039062 346.890625 188.253906 346.40625 C 189.464844 345.921875 190.78125 345.679688 192.203125 345.679688 C 193.277344 345.679688 194.304688 345.824219 195.28125 346.117188 C 196.257812 346.410156 197.121094 346.859375 197.878906 347.460938 C 198.636719 348.058594 199.238281 348.816406 199.679688 349.730469 C 200.125 350.644531 200.347656 351.722656 200.347656 352.964844 L 200.347656 368.1875 L 197.683594 368.1875 L 197.683594 364.628906 L 197.5625 364.628906 C 197.238281 365.296875 196.765625 365.9375 196.152344 366.550781 C 195.535156 367.167969 194.765625 367.660156 193.839844 368.035156 C 192.910156 368.410156 191.8125 368.597656 190.542969 368.597656 "/>
<path fill-rule="nonzero" fill="rgb(40.559387%, 40.957642%, 50.700378%)" fill-opacity="1" d="M 233.074219 366.164062 C 234.535156 366.164062 235.789062 365.785156 236.839844 365.027344 C 237.890625 364.269531 238.699219 363.210938 239.265625 361.84375 C 239.832031 360.480469 240.113281 358.90625 240.113281 357.117188 C 240.113281 355.316406 239.832031 353.742188 239.265625 352.390625 C 238.699219 351.039062 237.890625 349.988281 236.839844 349.238281 C 235.789062 348.488281 234.535156 348.113281 233.074219 348.113281 C 231.65625 348.113281 230.414062 348.484375 229.359375 349.230469 C 228.304688 349.972656 227.484375 351.019531 226.902344 352.371094 C 226.324219 353.71875 226.035156 355.304688 226.035156 357.117188 C 226.035156 358.933594 226.324219 360.519531 226.902344 361.875 C 227.484375 363.234375 228.304688 364.289062 229.359375 365.039062 C 230.414062 365.789062 231.65625 366.164062 233.074219 366.164062 M 232.703125 368.617188 C 230.863281 368.617188 229.234375 368.136719 227.8125 367.175781 C 226.398438 366.214844 225.292969 364.871094 224.5 363.144531 C 223.707031 361.417969 223.3125 359.417969 223.3125 357.136719 C 223.3125 354.847656 223.710938 352.84375 224.507812 351.121094 C 225.308594 349.402344 226.414062 348.066406 227.828125 347.113281 C 229.238281 346.15625 230.871094 345.679688 232.726562 345.679688 C 233.941406 345.679688 235.019531 345.886719 235.960938 346.300781 C 236.898438 346.71875 237.699219 347.273438 238.363281 347.960938 C 239.023438 348.648438 239.535156 349.410156 239.886719 350.242188 L 240.011719 350.242188 L 240.011719 337.699219 L 242.695312 337.699219 L 242.695312 368.1875 L 240.074219 368.1875 L 240.074219 364.015625 L 239.910156 364.015625 C 239.527344 364.847656 239.003906 365.613281 238.34375 366.316406 C 237.683594 367.019531 236.882812 367.578125 235.949219 367.992188 C 235.015625 368.410156 233.933594 368.617188 232.703125 368.617188 "/>
<path fill-rule="nonzero" fill="rgb(40.559387%, 40.957642%, 50.700378%)" fill-opacity="1" d="M 252.394531 346.003906 L 255.074219 346.003906 L 255.074219 368.1875 L 252.394531 368.1875 Z M 253.746094 341.523438 C 253.214844 341.523438 252.753906 341.335938 252.363281 340.960938 C 251.976562 340.585938 251.78125 340.132812 251.78125 339.601562 C 251.78125 339.070312 251.976562 338.617188 252.363281 338.238281 C 252.753906 337.867188 253.214844 337.675781 253.746094 337.675781 C 254.289062 337.675781 254.753906 337.867188 255.136719 338.238281 C 255.519531 338.617188 255.710938 339.070312 255.710938 339.601562 C 255.710938 340.132812 255.519531 340.585938 255.136719 340.960938 C 254.753906 341.335938 254.289062 341.523438 253.746094 341.523438 "/>
<path fill-rule="nonzero" fill="rgb(40.559387%, 40.957642%, 50.700378%)" fill-opacity="1" d="M 273.351562 365.855469 C 274.796875 365.855469 276.050781 365.496094 277.105469 364.78125 C 278.164062 364.066406 278.976562 363.050781 279.542969 361.734375 C 280.105469 360.414062 280.390625 358.855469 280.390625 357.054688 C 280.390625 355.285156 280.105469 353.722656 279.542969 352.382812 C 278.976562 351.039062 278.167969 349.988281 277.117188 349.238281 C 276.066406 348.488281 274.8125 348.113281 273.351562 348.113281 C 271.917969 348.113281 270.671875 348.484375 269.617188 349.230469 C 268.5625 349.972656 267.742188 351.015625 267.160156 352.351562 C 266.582031 353.6875 266.292969 355.253906 266.292969 357.054688 C 266.292969 358.871094 266.585938 360.433594 267.171875 361.742188 C 267.757812 363.050781 268.582031 364.066406 269.636719 364.78125 C 270.695312 365.496094 271.929688 365.855469 273.351562 365.855469 M 273.535156 377.113281 C 271.941406 377.113281 270.53125 376.878906 269.300781 376.414062 C 268.070312 375.953125 267.058594 375.292969 266.261719 374.441406 C 265.460938 373.585938 264.90625 372.582031 264.59375 371.421875 L 267.109375 370.789062 C 267.382812 371.550781 267.796875 372.226562 268.347656 372.8125 C 268.902344 373.398438 269.605469 373.859375 270.464844 374.195312 C 271.328125 374.527344 272.347656 374.695312 273.535156 374.695312 C 275.625 374.695312 277.273438 374.15625 278.480469 373.078125 C 279.683594 372.003906 280.289062 370.433594 280.289062 368.375 L 280.289062 363.832031 L 280.144531 363.832031 C 279.765625 364.664062 279.242188 365.414062 278.582031 366.089844 C 277.917969 366.765625 277.117188 367.300781 276.1875 367.699219 C 275.25 368.09375 274.175781 368.289062 272.960938 368.289062 C 271.132812 368.289062 269.511719 367.832031 268.09375 366.910156 C 266.671875 365.988281 265.566406 364.691406 264.765625 363.011719 C 263.96875 361.332031 263.570312 359.355469 263.570312 357.078125 C 263.570312 354.8125 263.96875 352.824219 264.765625 351.113281 C 265.566406 349.398438 266.671875 348.066406 268.09375 347.113281 C 269.511719 346.15625 271.148438 345.679688 273.003906 345.679688 C 274.21875 345.679688 275.296875 345.882812 276.238281 346.292969 C 277.179688 346.703125 277.980469 347.257812 278.652344 347.960938 C 279.320312 348.664062 279.839844 349.445312 280.207031 350.304688 L 280.332031 350.304688 L 280.332031 346.003906 L 282.96875 346.003906 L 282.96875 368.433594 C 282.96875 370.414062 282.558594 372.042969 281.730469 373.324219 C 280.90625 374.609375 279.785156 375.558594 278.367188 376.179688 C 276.945312 376.800781 275.335938 377.113281 273.535156 377.113281 "/>
<path fill-rule="nonzero" fill="rgb(40.559387%, 40.957642%, 50.700378%)" fill-opacity="1" d="M 292.652344 346.003906 L 295.332031 346.003906 L 295.332031 368.1875 L 292.652344 368.1875 Z M 294.003906 341.523438 C 293.472656 341.523438 293.011719 341.335938 292.621094 340.960938 C 292.234375 340.585938 292.039062 340.132812 292.039062 339.601562 C 292.039062 339.070312 292.234375 338.617188 292.621094 338.238281 C 293.011719 337.867188 293.472656 337.675781 294.003906 337.675781 C 294.546875 337.675781 295.011719 337.867188 295.394531 338.238281 C 295.777344 338.617188 295.96875 339.070312 295.96875 339.601562 C 295.96875 340.132812 295.777344 340.585938 295.394531 340.960938 C 295.011719 341.335938 294.546875 341.523438 294.003906 341.523438 "/>
<path fill-rule="nonzero" fill="rgb(40.559387%, 40.957642%, 50.700378%)" fill-opacity="1" d="M 305.980469 340.316406 L 308.679688 340.316406 L 308.679688 363.09375 C 308.679688 364.101562 308.902344 364.832031 309.34375 365.285156 C 309.789062 365.734375 310.507812 365.9375 311.507812 365.894531 C 311.75 365.894531 312.03125 365.886719 312.34375 365.867188 C 312.65625 365.84375 312.945312 365.820312 313.207031 365.792969 L 313.46875 368.148438 C 313.15625 368.1875 312.816406 368.222656 312.449219 368.25 C 312.078125 368.277344 311.722656 368.292969 311.382812 368.292969 C 309.636719 368.347656 308.300781 367.9375 307.371094 367.0625 C 306.445312 366.191406 305.980469 364.933594 305.980469 363.296875 Z M 313.265625 348.359375 L 302.421875 348.359375 L 302.421875 346.007812 L 313.265625 346.007812 Z M 313.265625 348.359375 "/>
<path fill-rule="nonzero" fill="rgb(40.559387%, 40.957642%, 50.700378%)" fill-opacity="1" d="M 328.023438 366.164062 C 329.441406 366.164062 330.652344 365.878906 331.65625 365.304688 C 332.65625 364.730469 333.425781 363.945312 333.964844 362.949219 C 334.507812 361.953125 334.773438 360.835938 334.773438 359.59375 L 334.773438 356.464844 C 334.582031 356.640625 334.285156 356.800781 333.875 356.945312 C 333.464844 357.085938 332.984375 357.214844 332.433594 357.324219 C 331.878906 357.433594 331.292969 357.535156 330.671875 357.628906 C 330.050781 357.726562 329.449219 357.808594 328.863281 357.875 C 327.617188 358.039062 326.550781 358.285156 325.660156 358.609375 C 324.765625 358.941406 324.082031 359.382812 323.601562 359.941406 C 323.125 360.5 322.886719 361.226562 322.886719 362.113281 C 322.886719 362.96875 323.105469 363.703125 323.550781 364.3125 C 323.992188 364.917969 324.601562 365.378906 325.371094 365.691406 C 326.140625 366.007812 327.027344 366.164062 328.023438 366.164062 M 327.65625 368.597656 C 326.277344 368.597656 325.019531 368.347656 323.886719 367.851562 C 322.753906 367.351562 321.851562 366.609375 321.175781 365.621094 C 320.5 364.632812 320.164062 363.421875 320.164062 361.988281 C 320.164062 360.855469 320.378906 359.914062 320.808594 359.164062 C 321.238281 358.414062 321.839844 357.800781 322.621094 357.324219 C 323.398438 356.84375 324.324219 356.46875 325.394531 356.199219 C 326.464844 355.925781 327.640625 355.707031 328.921875 355.542969 C 330.234375 355.363281 331.320312 355.214844 332.1875 355.089844 C 333.050781 354.96875 333.703125 354.777344 334.132812 354.519531 C 334.558594 354.261719 334.773438 353.84375 334.773438 353.273438 L 334.773438 352.859375 C 334.773438 351.90625 334.558594 351.070312 334.117188 350.355469 C 333.683594 349.636719 333.058594 349.078125 332.25 348.675781 C 331.4375 348.273438 330.472656 348.074219 329.351562 348.074219 C 328.261719 348.074219 327.292969 348.257812 326.449219 348.625 C 325.597656 348.992188 324.917969 349.488281 324.390625 350.109375 C 323.863281 350.730469 323.523438 351.414062 323.375 352.164062 L 320.71875 351.757812 C 320.976562 350.488281 321.511719 349.398438 322.324219 348.492188 C 323.136719 347.585938 324.148438 346.890625 325.363281 346.40625 C 326.574219 345.921875 327.890625 345.679688 329.3125 345.679688 C 330.386719 345.679688 331.417969 345.824219 332.390625 346.117188 C 333.367188 346.410156 334.234375 346.859375 334.992188 347.460938 C 335.746094 348.058594 336.347656 348.816406 336.792969 349.730469 C 337.234375 350.644531 337.457031 351.722656 337.457031 352.964844 L 337.457031 368.1875 L 334.796875 368.1875 L 334.796875 364.628906 L 334.671875 364.628906 C 334.347656 365.296875 333.875 365.9375 333.261719 366.550781 C 332.648438 367.167969 331.878906 367.660156 330.949219 368.035156 C 330.019531 368.410156 328.921875 368.597656 327.65625 368.597656 "/>
<path fill-rule="nonzero" fill="rgb(40.559387%, 40.957642%, 50.700378%)" fill-opacity="1" d="M 349.839844 368.1875 L 347.160156 368.1875 L 347.160156 337.699219 L 349.839844 337.699219 Z M 349.839844 368.1875 "/>
<path fill-rule="nonzero" fill="rgb(40.559387%, 40.957642%, 50.700378%)" fill-opacity="1" d="M 368.46875 368.660156 C 366.378906 368.660156 364.582031 368.164062 363.0625 367.175781 C 361.550781 366.1875 360.386719 364.828125 359.5625 363.101562 C 358.746094 361.378906 358.339844 359.402344 358.339844 357.179688 C 358.339844 354.941406 358.753906 352.957031 359.585938 351.222656 C 360.417969 349.492188 361.574219 348.128906 363.054688 347.132812 C 364.535156 346.136719 366.242188 345.636719 368.179688 345.636719 C 369.546875 345.636719 370.816406 345.890625 371.996094 346.394531 C 373.175781 346.898438 374.207031 347.636719 375.085938 348.605469 C 375.96875 349.574219 376.652344 350.75 377.140625 352.136719 C 377.632812 353.519531 377.878906 355.097656 377.878906 356.871094 L 377.878906 357.855469 L 359.914062 357.855469 L 359.914062 355.5 L 376.386719 355.5 L 375.199219 356.320312 C 375.199219 354.710938 374.910156 353.285156 374.328125 352.042969 C 373.75 350.800781 372.933594 349.828125 371.882812 349.125 C 370.835938 348.425781 369.601562 348.074219 368.179688 348.074219 C 366.746094 348.074219 365.496094 348.433594 364.425781 349.148438 C 363.355469 349.863281 362.519531 350.84375 361.917969 352.09375 C 361.316406 353.34375 361.015625 354.757812 361.015625 356.339844 L 361.015625 357.507812 C 361.015625 359.226562 361.324219 360.742188 361.929688 362.050781 C 362.535156 363.359375 363.398438 364.378906 364.507812 365.109375 C 365.621094 365.839844 366.9375 366.203125 368.46875 366.203125 C 369.546875 366.203125 370.511719 366.023438 371.363281 365.660156 C 372.214844 365.300781 372.933594 364.804688 373.511719 364.179688 C 374.089844 363.550781 374.515625 362.839844 374.789062 362.050781 L 377.429688 362.417969 C 377.105469 363.605469 376.523438 364.667969 375.691406 365.609375 C 374.859375 366.550781 373.828125 367.296875 372.597656 367.839844 C 371.375 368.386719 369.996094 368.660156 368.46875 368.660156 "/>
<path fill-rule="nonzero" fill="rgb(40.559387%, 40.957642%, 50.700378%)" fill-opacity="1" d="M 407.335938 366.164062 C 408.75 366.164062 409.960938 365.878906 410.964844 365.304688 C 411.964844 364.730469 412.738281 363.945312 413.277344 362.949219 C 413.816406 361.953125 414.085938 360.835938 414.085938 359.59375 L 414.085938 356.464844 C 413.894531 356.640625 413.59375 356.800781 413.1875 356.945312 C 412.777344 357.085938 412.296875 357.214844 411.742188 357.324219 C 411.191406 357.433594 410.605469 357.535156 409.984375 357.628906 C 409.363281 357.726562 408.757812 357.808594 408.171875 357.875 C 406.929688 358.039062 405.863281 358.285156 404.96875 358.609375 C 404.078125 358.941406 403.390625 359.382812 402.914062 359.941406 C 402.433594 360.5 402.199219 361.226562 402.199219 362.113281 C 402.199219 362.96875 402.417969 363.703125 402.859375 364.3125 C 403.304688 364.917969 403.910156 365.378906 404.683594 365.691406 C 405.453125 366.007812 406.335938 366.164062 407.335938 366.164062 M 406.964844 368.597656 C 405.585938 368.597656 404.332031 368.347656 403.199219 367.851562 C 402.066406 367.351562 401.164062 366.609375 400.488281 365.621094 C 399.8125 364.632812 399.472656 363.421875 399.472656 361.988281 C 399.472656 360.855469 399.6875 359.914062 400.117188 359.164062 C 400.550781 358.414062 401.152344 357.800781 401.929688 357.324219 C 402.707031 356.84375 403.632812 356.46875 404.703125 356.199219 C 405.773438 355.925781 406.949219 355.707031 408.234375 355.542969 C 409.542969 355.363281 410.628906 355.214844 411.496094 355.089844 C 412.363281 354.96875 413.011719 354.777344 413.441406 354.519531 C 413.871094 354.261719 414.085938 353.84375 414.085938 353.273438 L 414.085938 352.859375 C 414.085938 351.90625 413.867188 351.070312 413.429688 350.355469 C 412.996094 349.636719 412.367188 349.078125 411.558594 348.675781 C 410.746094 348.273438 409.78125 348.074219 408.660156 348.074219 C 407.570312 348.074219 406.601562 348.257812 405.757812 348.625 C 404.910156 348.992188 404.226562 349.488281 403.699219 350.109375 C 403.175781 350.730469 402.835938 351.414062 402.6875 352.164062 L 400.027344 351.757812 C 400.285156 350.488281 400.820312 349.398438 401.636719 348.492188 C 402.445312 347.585938 403.460938 346.890625 404.671875 346.40625 C 405.886719 345.921875 407.203125 345.679688 408.621094 345.679688 C 409.699219 345.679688 410.726562 345.824219 411.699219 346.117188 C 412.675781 346.410156 413.542969 346.859375 414.300781 347.460938 C 415.054688 348.058594 415.660156 348.816406 416.101562 349.730469 C 416.546875 350.644531 416.769531 351.722656 416.769531 352.964844 L 416.769531 368.1875 L 414.105469 368.1875 L 414.105469 364.628906 L 413.984375 364.628906 C 413.65625 365.296875 413.1875 365.9375 412.574219 366.550781 C 411.957031 367.167969 411.1875 367.660156 410.257812 368.035156 C 409.328125 368.410156 408.234375 368.597656 406.964844 368.597656 "/>
<path fill-rule="nonzero" fill="rgb(40.559387%, 40.957642%, 50.700378%)" fill-opacity="1" d="M 429.148438 368.1875 L 426.472656 368.1875 L 426.472656 337.699219 L 429.148438 337.699219 Z M 429.148438 368.1875 "/>
<path fill-rule="nonzero" fill="rgb(40.559387%, 40.957642%, 50.700378%)" fill-opacity="1" d="M 448.472656 366.164062 C 449.894531 366.164062 451.128906 365.789062 452.1875 365.039062 C 453.242188 364.289062 454.066406 363.234375 454.644531 361.875 C 455.222656 360.519531 455.511719 358.933594 455.511719 357.117188 C 455.511719 355.304688 455.222656 353.71875 454.644531 352.371094 C 454.066406 351.019531 453.25 349.972656 452.195312 349.230469 C 451.144531 348.484375 449.90625 348.113281 448.472656 348.113281 C 447.011719 348.113281 445.753906 348.488281 444.695312 349.238281 C 443.640625 349.988281 442.832031 351.039062 442.261719 352.390625 C 441.699219 353.742188 441.414062 355.316406 441.414062 357.117188 C 441.414062 358.90625 441.699219 360.480469 442.273438 361.84375 C 442.84375 363.210938 443.65625 364.269531 444.710938 365.027344 C 445.757812 365.785156 447.011719 366.164062 448.472656 366.164062 M 438.855469 376.742188 L 438.855469 346.003906 L 441.476562 346.003906 L 441.476562 350.242188 L 441.636719 350.242188 C 441.992188 349.410156 442.5 348.648438 443.164062 347.960938 C 443.824219 347.273438 444.628906 346.71875 445.578125 346.300781 C 446.523438 345.886719 447.605469 345.679688 448.820312 345.679688 C 450.675781 345.679688 452.3125 346.15625 453.722656 347.113281 C 455.132812 348.066406 456.238281 349.402344 457.039062 351.121094 C 457.835938 352.84375 458.234375 354.847656 458.234375 357.136719 C 458.234375 359.417969 457.835938 361.417969 457.046875 363.144531 C 456.253906 364.871094 455.15625 366.214844 453.742188 367.175781 C 452.328125 368.136719 450.691406 368.617188 448.820312 368.617188 C 447.621094 368.617188 446.550781 368.410156 445.621094 367.992188 C 444.683594 367.578125 443.882812 367.019531 443.226562 366.316406 C 442.5625 365.613281 442.042969 364.847656 441.660156 364.015625 L 441.535156 364.015625 L 441.535156 376.742188 Z M 438.855469 376.742188 "/>
<path fill-rule="nonzero" fill="rgb(40.559387%, 40.957642%, 50.700378%)" fill-opacity="1" d="M 466.730469 346.003906 L 469.410156 346.003906 L 469.410156 368.1875 L 466.730469 368.1875 Z M 468.082031 341.523438 C 467.550781 341.523438 467.089844 341.335938 466.699219 340.960938 C 466.3125 340.585938 466.117188 340.132812 466.117188 339.601562 C 466.117188 339.070312 466.3125 338.617188 466.699219 338.238281 C 467.089844 337.867188 467.550781 337.675781 468.082031 337.675781 C 468.625 337.675781 469.089844 337.867188 469.472656 338.238281 C 469.855469 338.617188 470.046875 339.070312 470.046875 339.601562 C 470.046875 340.132812 469.855469 340.585938 469.472656 340.960938 C 469.089844 341.335938 468.625 341.523438 468.082031 341.523438 "/>
<path fill-rule="nonzero" fill="rgb(40.559387%, 40.957642%, 50.700378%)" fill-opacity="1" d="M 481.792969 354.558594 L 481.792969 368.1875 L 479.113281 368.1875 L 479.113281 346.007812 L 481.734375 346.007812 L 481.734375 351.246094 L 481.140625 351.246094 C 481.765625 349.308594 482.75 347.894531 484.085938 347.007812 C 485.421875 346.121094 486.949219 345.679688 488.667969 345.679688 C 490.183594 345.679688 491.535156 346 492.722656 346.640625 C 493.910156 347.28125 494.847656 348.222656 495.535156 349.464844 C 496.226562 350.707031 496.570312 352.226562 496.570312 354.027344 L 496.570312 368.1875 L 493.867188 368.1875 L 493.867188 354.210938 C 493.867188 352.300781 493.347656 350.816406 492.3125 349.75 C 491.273438 348.6875 489.867188 348.15625 488.09375 348.15625 C 486.90625 348.15625 485.839844 348.402344 484.894531 348.890625 C 483.945312 349.382812 483.191406 350.105469 482.632812 351.0625 C 482.070312 352.015625 481.792969 353.183594 481.792969 354.558594 "/>
<path fill-rule="nonzero" fill="rgb(40.559387%, 40.957642%, 50.700378%)" fill-opacity="1" d="M 512.84375 366.164062 C 514.261719 366.164062 515.472656 365.878906 516.476562 365.304688 C 517.476562 364.730469 518.246094 363.945312 518.785156 362.949219 C 519.328125 361.953125 519.59375 360.835938 519.59375 359.59375 L 519.59375 356.464844 C 519.40625 356.640625 519.105469 356.800781 518.695312 356.945312 C 518.285156 357.085938 517.808594 357.214844 517.253906 357.324219 C 516.699219 357.433594 516.113281 357.535156 515.492188 357.628906 C 514.875 357.726562 514.269531 357.808594 513.683594 357.875 C 512.441406 358.039062 511.371094 358.285156 510.480469 358.609375 C 509.585938 358.941406 508.902344 359.382812 508.425781 359.941406 C 507.945312 360.5 507.707031 361.226562 507.707031 362.113281 C 507.707031 362.96875 507.925781 363.703125 508.371094 364.3125 C 508.8125 364.917969 509.421875 365.378906 510.191406 365.691406 C 510.960938 366.007812 511.847656 366.164062 512.84375 366.164062 M 512.476562 368.597656 C 511.097656 368.597656 509.84375 368.347656 508.710938 367.851562 C 507.574219 367.351562 506.675781 366.609375 505.996094 365.621094 C 505.324219 364.632812 504.984375 363.421875 504.984375 361.988281 C 504.984375 360.855469 505.199219 359.914062 505.628906 359.164062 C 506.058594 358.414062 506.664062 357.800781 507.441406 357.324219 C 508.21875 356.84375 509.144531 356.46875 510.214844 356.199219 C 511.285156 355.925781 512.460938 355.707031 513.742188 355.542969 C 515.054688 355.363281 516.140625 355.214844 517.007812 355.089844 C 517.871094 354.96875 518.523438 354.777344 518.953125 354.519531 C 519.378906 354.261719 519.59375 353.84375 519.59375 353.273438 L 519.59375 352.859375 C 519.59375 351.90625 519.378906 351.070312 518.941406 350.355469 C 518.503906 349.636719 517.878906 349.078125 517.070312 348.675781 C 516.257812 348.273438 515.292969 348.074219 514.171875 348.074219 C 513.082031 348.074219 512.113281 348.257812 511.269531 348.625 C 510.417969 348.992188 509.738281 349.488281 509.210938 350.109375 C 508.683594 350.730469 508.347656 351.414062 508.195312 352.164062 L 505.539062 351.757812 C 505.796875 350.488281 506.332031 349.398438 507.144531 348.492188 C 507.957031 347.585938 508.96875 346.890625 510.183594 346.40625 C 511.398438 345.921875 512.710938 345.679688 514.132812 345.679688 C 515.210938 345.679688 516.238281 345.824219 517.210938 346.117188 C 518.1875 346.410156 519.054688 346.859375 519.8125 347.460938 C 520.566406 348.058594 521.167969 348.816406 521.613281 349.730469 C 522.054688 350.644531 522.277344 351.722656 522.277344 352.964844 L 522.277344 368.1875 L 519.617188 368.1875 L 519.617188 364.628906 L 519.496094 364.628906 C 519.167969 365.296875 518.695312 365.9375 518.082031 366.550781 C 517.46875 367.167969 516.699219 367.660156 515.769531 368.035156 C 514.839844 368.410156 513.742188 368.597656 512.476562 368.597656 "/>
<path fill-rule="nonzero" fill="rgb(40.559387%, 40.957642%, 50.700378%)" fill-opacity="1" d="M 531.140625 374.082031 L 531.140625 371.730469 L 535.316406 371.730469 L 535.316406 338.351562 L 531.140625 338.351562 L 531.140625 336 L 537.957031 336 L 537.957031 374.082031 Z M 531.140625 374.082031 "/>
<path fill-rule="nonzero" fill="rgb(100%, 100%, 100%)" fill-opacity="1" d="M 124.269531 269.390625 L 124.269531 317.363281 L 98.777344 317.363281 L 98.777344 269.390625 C 98.777344 257 88.691406 246.925781 76.300781 246.925781 C 63.90625 246.925781 53.832031 257 53.832031 269.390625 L 53.832031 317.363281 L 28.34375 317.363281 L 28.34375 269.390625 C 28.34375 242.90625 49.8125 221.433594 76.300781 221.433594 C 102.796875 221.433594 124.269531 242.90625 124.269531 269.390625 "/>
<path fill-rule="nonzero" fill="rgb(100%, 100%, 100%)" fill-opacity="1" d="M 184.167969 299.03125 C 188.621094 299.03125 192.375 297.804688 195.429688 295.351562 C 198.484375 292.894531 200.8125 289.511719 202.410156 285.199219 C 204.007812 280.890625 204.808594 275.9375 204.808594 270.339844 C 204.808594 264.6875 204.007812 259.722656 202.410156 255.4375 C 200.8125 251.15625 198.484375 247.789062 195.429688 245.332031 C 192.375 242.875 188.621094 241.648438 184.167969 241.648438 C 179.714844 241.648438 175.945312 242.875 172.859375 245.332031 C 169.777344 247.789062 167.449219 251.15625 165.882812 255.4375 C 164.308594 259.722656 163.527344 264.6875 163.527344 270.339844 C 163.527344 275.9375 164.308594 280.890625 165.882812 285.199219 C 167.449219 289.511719 169.761719 292.894531 172.816406 295.351562 C 175.871094 297.804688 179.65625 299.03125 184.167969 299.03125 M 184.167969 319.246094 C 174.632812 319.246094 166.363281 317.203125 159.371094 313.121094 C 152.375 309.039062 146.980469 303.328125 143.183594 295.992188 C 139.386719 288.65625 137.488281 280.132812 137.488281 270.425781 C 137.488281 260.605469 139.386719 252.027344 143.183594 244.691406 C 146.980469 237.351562 152.375 231.640625 159.371094 227.558594 C 166.363281 223.476562 174.632812 221.4375 184.167969 221.4375 C 193.644531 221.4375 201.882812 223.476562 208.875 227.558594 C 215.871094 231.640625 221.265625 237.351562 225.0625 244.691406 C 228.859375 252.027344 230.761719 260.605469 230.761719 270.425781 C 230.761719 280.132812 228.859375 288.65625 225.0625 295.992188 C 221.265625 303.328125 215.871094 309.039062 208.875 313.121094 C 201.882812 317.203125 193.644531 319.246094 184.167969 319.246094 "/>
<path fill-rule="nonzero" fill="rgb(100%, 100%, 100%)" fill-opacity="1" d="M 282.152344 319.332031 C 274.441406 319.332031 267.605469 318.203125 261.640625 315.949219 C 255.671875 313.691406 250.816406 310.421875 247.078125 306.140625 C 243.339844 301.859375 240.984375 296.71875 240.011719 290.726562 L 264.082031 287.46875 C 265.164062 291.808594 267.25 295.09375 270.332031 297.320312 C 273.414062 299.546875 277.527344 300.660156 282.664062 300.660156 C 287.515625 300.660156 291.34375 299.730469 294.140625 297.875 C 296.9375 296.019531 298.339844 293.667969 298.339844 290.8125 C 298.339844 288.355469 297.324219 286.34375 295.296875 284.773438 C 293.269531 283.203125 290.230469 281.988281 286.175781 281.132812 L 269.816406 277.878906 C 260.683594 275.992188 253.832031 272.796875 249.261719 268.285156 C 244.695312 263.773438 242.410156 257.949219 242.410156 250.8125 C 242.410156 244.816406 244.050781 239.625 247.335938 235.226562 C 250.617188 230.828125 255.242188 227.429688 261.210938 225.03125 C 267.175781 222.636719 274.15625 221.4375 282.152344 221.4375 C 289.800781 221.4375 296.425781 222.519531 302.023438 224.691406 C 307.617188 226.859375 312.113281 229.945312 315.511719 233.941406 C 318.90625 237.9375 321.0625 242.648438 321.976562 248.070312 L 299.109375 251.242188 C 298.308594 247.875 296.527344 245.117188 293.757812 242.976562 C 290.984375 240.835938 287.289062 239.765625 282.664062 239.765625 C 278.382812 239.765625 274.855469 240.664062 272.089844 242.460938 C 269.316406 244.261719 267.933594 246.585938 267.933594 249.441406 C 267.933594 251.839844 268.875 253.851562 270.761719 255.480469 C 272.644531 257.109375 275.726562 258.351562 280.011719 259.207031 L 297.140625 262.632812 C 306.390625 264.460938 313.253906 267.488281 317.738281 271.710938 C 322.21875 275.9375 324.460938 281.445312 324.460938 288.242188 C 324.460938 294.464844 322.664062 299.902344 319.066406 304.554688 C 315.46875 309.210938 310.488281 312.835938 304.121094 315.433594 C 297.753906 318.03125 290.429688 319.332031 282.152344 319.332031 "/>
<path fill-rule="nonzero" fill="rgb(52.801514%, 81.245422%, 23.277283%)" fill-opacity="1" d="M 352.300781 317.359375 L 340.824219 317.359375 L 340.824219 189.746094 L 352.300781 189.746094 Z M 352.300781 317.359375 "/>
<path fill-rule="nonzero" fill="rgb(52.801514%, 81.245422%, 23.277283%)" fill-opacity="1" d="M 400.183594 309.054688 C 406.0625 309.054688 411.132812 307.796875 415.386719 305.285156 C 419.640625 302.773438 422.910156 299.375 425.191406 295.09375 C 427.476562 290.808594 428.621094 286.101562 428.621094 280.960938 L 428.621094 267.515625 C 427.820312 268.257812 426.492188 268.941406 424.636719 269.570312 C 422.78125 270.199219 420.636719 270.757812 418.210938 271.238281 C 415.785156 271.726562 413.316406 272.140625 410.804688 272.480469 C 408.292969 272.824219 405.949219 273.136719 403.78125 273.421875 C 398.527344 274.054688 394.019531 275.066406 390.25 276.464844 C 386.480469 277.863281 383.597656 279.761719 381.597656 282.160156 C 379.597656 284.558594 378.601562 287.640625 378.601562 291.410156 C 378.601562 295.121094 379.542969 298.292969 381.425781 300.917969 C 383.3125 303.542969 385.882812 305.554688 389.136719 306.957031 C 392.390625 308.355469 396.074219 309.054688 400.183594 309.054688 M 398.472656 319.332031 C 392.703125 319.332031 387.4375 318.246094 382.667969 316.078125 C 377.902344 313.90625 374.105469 310.695312 371.277344 306.441406 C 368.453125 302.1875 367.039062 297.007812 367.039062 290.894531 C 367.039062 286.15625 367.9375 282.191406 369.734375 278.992188 C 371.535156 275.792969 374.074219 273.179688 377.359375 271.152344 C 380.640625 269.128906 384.523438 267.515625 389.007812 266.3125 C 393.488281 265.117188 398.441406 264.171875 403.867188 263.488281 C 409.234375 262.804688 413.746094 262.21875 417.398438 261.734375 C 421.050781 261.25 423.835938 260.449219 425.75 259.335938 C 427.660156 258.222656 428.621094 256.496094 428.621094 254.152344 L 428.621094 252.097656 C 428.621094 247.871094 427.734375 244.246094 425.964844 241.21875 C 424.191406 238.195312 421.640625 235.855469 418.296875 234.199219 C 414.957031 232.542969 410.890625 231.710938 406.09375 231.710938 C 401.523438 231.710938 397.511719 232.441406 394.058594 233.898438 C 390.605469 235.351562 387.765625 237.265625 385.539062 239.636719 C 383.3125 242.003906 381.738281 244.644531 380.828125 247.558594 L 369.609375 244.644531 C 371.320312 239.335938 374.003906 234.980469 377.660156 231.585938 C 381.3125 228.1875 385.59375 225.648438 390.507812 223.960938 C 395.414062 222.277344 400.554688 221.4375 405.921875 221.4375 C 409.917969 221.4375 413.941406 221.980469 418 223.0625 C 422.050781 224.148438 425.734375 225.90625 429.046875 228.332031 C 432.359375 230.757812 435.027344 233.984375 437.054688 238.007812 C 439.082031 242.035156 440.097656 246.988281 440.097656 252.867188 L 440.097656 317.359375 L 428.789062 317.359375 L 428.789062 302.285156 L 428.019531 302.285156 C 426.707031 305.199219 424.734375 307.953125 422.109375 310.554688 C 419.484375 313.152344 416.214844 315.261719 412.300781 316.890625 C 408.390625 318.519531 403.78125 319.332031 398.472656 319.332031 "/>
<path fill-rule="nonzero" fill="rgb(52.801514%, 81.245422%, 23.277283%)" fill-opacity="1" d="M 497.660156 308.882812 C 503.828125 308.882812 509.082031 307.210938 513.421875 303.871094 C 517.757812 300.53125 521.085938 295.9375 523.398438 290.082031 C 525.710938 284.230469 526.867188 277.59375 526.867188 270.167969 C 526.867188 262.746094 525.722656 256.152344 523.441406 250.382812 C 521.15625 244.617188 517.832031 240.09375 513.464844 236.808594 C 509.09375 233.527344 503.828125 231.882812 497.660156 231.882812 C 491.550781 231.882812 486.3125 233.5 481.945312 236.722656 C 477.578125 239.949219 474.25 244.449219 471.96875 250.214844 C 469.683594 255.980469 468.539062 262.632812 468.539062 270.167969 C 468.539062 277.761719 469.683594 284.472656 471.96875 290.296875 C 474.25 296.121094 477.578125 300.675781 481.945312 303.957031 C 486.3125 307.242188 491.550781 308.882812 497.660156 308.882812 M 499.203125 319.332031 C 493.722656 319.332031 489.023438 318.347656 485.113281 316.375 C 481.203125 314.40625 477.976562 311.921875 475.4375 308.925781 C 472.894531 305.929688 470.910156 302.832031 469.484375 299.632812 L 468.457031 299.632812 L 468.457031 317.363281 L 457.320312 317.363281 L 457.320312 189.746094 L 468.796875 189.746094 L 468.796875 240.878906 L 469.570312 240.878906 C 470.941406 237.738281 472.878906 234.683594 475.394531 231.714844 C 477.90625 228.746094 481.101562 226.289062 484.984375 224.347656 C 488.867188 222.40625 493.578125 221.433594 499.117188 221.433594 C 506.9375 221.433594 513.804688 223.476562 519.714844 227.558594 C 525.625 231.640625 530.234375 237.351562 533.546875 244.691406 C 536.859375 252.027344 538.515625 260.550781 538.515625 270.253906 C 538.515625 280.078125 536.875 288.65625 533.589844 295.992188 C 530.304688 303.328125 525.710938 309.054688 519.800781 313.164062 C 513.890625 317.273438 507.023438 319.332031 499.203125 319.332031 "/>
</svg>
