<?xml version="1.0" encoding="UTF-8"?>
<svg xmlns="http://www.w3.org/2000/svg" xmlns:xlink="http://www.w3.org/1999/xlink" width="523.9" height="143.4" viewBox="21.51 211.76 523.91 143.40">
<path fill-rule="nonzero" fill="rgb(100%, 100%, 100%)" fill-opacity="1" d="M 124.269531 298.28125 L 124.269531 346.25 L 98.78125 346.25 L 98.78125 298.28125 C 98.78125 285.890625 88.695312 275.816406 76.300781 275.816406 C 63.90625 275.816406 53.835938 285.890625 53.835938 298.28125 L 53.835938 346.25 L 28.34375 346.25 L 28.34375 298.28125 C 28.34375 271.796875 49.816406 250.328125 76.300781 250.328125 C 102.796875 250.328125 124.269531 271.796875 124.269531 298.28125 "/>
<path fill-rule="nonzero" fill="rgb(100%, 100%, 100%)" fill-opacity="1" d="M 184.167969 327.921875 C 188.621094 327.921875 192.375 326.695312 195.429688 324.238281 C 198.484375 321.785156 200.8125 318.402344 202.410156 314.089844 C 204.007812 309.78125 204.808594 304.828125 204.808594 299.230469 C 204.808594 293.578125 204.007812 288.609375 202.410156 284.328125 C 200.8125 280.046875 198.484375 276.675781 195.429688 274.222656 C 192.375 271.769531 188.621094 270.539062 184.167969 270.539062 C 179.714844 270.539062 175.945312 271.769531 172.863281 274.222656 C 169.777344 276.675781 167.453125 280.046875 165.882812 284.328125 C 164.3125 288.609375 163.527344 293.578125 163.527344 299.230469 C 163.527344 304.828125 164.3125 309.78125 165.882812 314.089844 C 167.453125 318.402344 169.765625 321.785156 172.820312 324.238281 C 175.871094 326.695312 179.65625 327.921875 184.167969 327.921875 M 184.167969 348.136719 C 174.632812 348.136719 166.367188 346.09375 159.371094 342.011719 C 152.378906 337.929688 146.980469 332.21875 143.1875 324.882812 C 139.386719 317.546875 137.492188 309.023438 137.492188 299.316406 C 137.492188 289.496094 139.386719 280.917969 143.1875 273.578125 C 146.980469 266.242188 152.378906 260.53125 159.371094 256.449219 C 166.367188 252.367188 174.632812 250.328125 184.167969 250.328125 C 193.644531 250.328125 201.882812 252.367188 208.875 256.449219 C 215.871094 260.53125 221.265625 266.242188 225.066406 273.578125 C 228.859375 280.917969 230.761719 289.496094 230.761719 299.316406 C 230.761719 309.023438 228.859375 317.546875 225.066406 324.882812 C 221.265625 332.21875 215.871094 337.929688 208.875 342.011719 C 201.882812 346.09375 193.644531 348.136719 184.167969 348.136719 "/>
<path fill-rule="nonzero" fill="rgb(100%, 100%, 100%)" fill-opacity="1" d="M 282.152344 348.222656 C 274.441406 348.222656 267.605469 347.09375 261.640625 344.839844 C 255.671875 342.582031 250.820312 339.3125 247.078125 335.03125 C 243.339844 330.746094 240.984375 325.609375 240.011719 319.613281 L 264.082031 316.359375 C 265.164062 320.699219 267.25 323.984375 270.332031 326.210938 C 273.414062 328.4375 277.527344 329.550781 282.664062 329.550781 C 287.515625 329.550781 291.34375 328.621094 294.140625 326.765625 C 296.9375 324.910156 298.339844 322.554688 298.339844 319.699219 C 298.339844 317.246094 297.324219 315.234375 295.296875 313.664062 C 293.269531 312.09375 290.230469 310.878906 286.175781 310.023438 L 269.820312 306.765625 C 260.683594 304.882812 253.832031 301.6875 249.261719 297.175781 C 244.695312 292.664062 242.410156 286.839844 242.410156 279.703125 C 242.410156 273.707031 244.050781 268.511719 247.335938 264.117188 C 250.617188 259.71875 255.242188 256.320312 261.210938 253.921875 C 267.175781 251.527344 274.15625 250.324219 282.152344 250.324219 C 289.800781 250.324219 296.425781 251.410156 302.023438 253.582031 C 307.617188 255.75 312.113281 258.835938 315.511719 262.832031 C 318.90625 266.828125 321.0625 271.539062 321.976562 276.960938 L 299.109375 280.132812 C 298.308594 276.761719 296.527344 274.007812 293.757812 271.867188 C 290.984375 269.726562 287.289062 268.65625 282.664062 268.65625 C 278.382812 268.65625 274.855469 269.554688 272.089844 271.351562 C 269.316406 273.152344 267.933594 275.476562 267.933594 278.332031 C 267.933594 280.730469 268.875 282.742188 270.761719 284.371094 C 272.644531 286 275.730469 287.238281 280.011719 288.097656 L 297.140625 291.523438 C 306.390625 293.351562 313.253906 296.375 317.738281 300.601562 C 322.21875 304.828125 324.460938 310.335938 324.460938 317.128906 C 324.460938 323.355469 322.664062 328.792969 319.066406 333.445312 C 315.46875 338.101562 310.488281 341.726562 304.121094 344.324219 C 297.753906 346.921875 290.429688 348.222656 282.152344 348.222656 "/>
<path fill-rule="nonzero" fill="rgb(52.801514%, 81.245422%, 23.277283%)" fill-opacity="1" d="M 352.300781 346.25 L 340.824219 346.25 L 340.824219 218.636719 L 352.300781 218.636719 Z M 352.300781 346.25 "/>
<path fill-rule="nonzero" fill="rgb(52.801514%, 81.245422%, 23.277283%)" fill-opacity="1" d="M 400.183594 337.941406 C 406.0625 337.941406 411.128906 336.6875 415.386719 334.175781 C 419.636719 331.664062 422.910156 328.265625 425.191406 323.984375 C 427.476562 319.699219 428.617188 314.988281 428.617188 309.851562 L 428.617188 296.402344 C 427.816406 297.148438 426.488281 297.832031 424.636719 298.460938 C 422.777344 299.089844 420.636719 299.644531 418.210938 300.128906 C 415.785156 300.617188 413.3125 301.03125 410.804688 301.371094 C 408.289062 301.714844 405.949219 302.027344 403.78125 302.3125 C 398.527344 302.941406 394.015625 303.957031 390.25 305.355469 C 386.480469 306.753906 383.59375 308.652344 381.597656 311.050781 C 379.597656 313.449219 378.601562 316.53125 378.601562 320.300781 C 378.601562 324.011719 379.542969 327.179688 381.425781 329.808594 C 383.308594 332.433594 385.878906 334.445312 389.132812 335.84375 C 392.390625 337.242188 396.070312 337.941406 400.183594 337.941406 M 398.46875 348.21875 C 392.703125 348.21875 387.433594 347.132812 382.667969 344.964844 C 377.898438 342.796875 374.101562 339.585938 371.277344 335.332031 C 368.449219 331.078125 367.039062 325.894531 367.039062 319.785156 C 367.039062 315.046875 367.9375 311.078125 369.734375 307.878906 C 371.535156 304.683594 374.074219 302.070312 377.359375 300.042969 C 380.640625 298.019531 384.523438 296.402344 389.003906 295.207031 C 393.488281 294.007812 398.441406 293.0625 403.867188 292.378906 C 409.234375 291.695312 413.742188 291.109375 417.398438 290.625 C 421.050781 290.140625 423.835938 289.335938 425.75 288.226562 C 427.660156 287.113281 428.617188 285.386719 428.617188 283.042969 L 428.617188 280.988281 C 428.617188 276.761719 427.730469 273.136719 425.960938 270.109375 C 424.191406 267.085938 421.636719 264.742188 418.296875 263.089844 C 414.957031 261.433594 410.890625 260.601562 406.09375 260.601562 C 401.523438 260.601562 397.511719 261.332031 394.058594 262.789062 C 390.601562 264.242188 387.765625 266.15625 385.535156 268.527344 C 383.308594 270.894531 381.738281 273.535156 380.828125 276.449219 L 369.605469 273.535156 C 371.320312 268.226562 374.003906 263.875 377.65625 260.476562 C 381.3125 257.078125 385.59375 254.539062 390.503906 252.851562 C 395.414062 251.167969 400.554688 250.324219 405.921875 250.324219 C 409.917969 250.324219 413.941406 250.871094 417.996094 251.953125 C 422.050781 253.039062 425.734375 254.796875 429.046875 257.222656 C 432.355469 259.648438 435.027344 262.875 437.054688 266.898438 C 439.082031 270.925781 440.09375 275.878906 440.09375 281.757812 L 440.09375 346.25 L 428.789062 346.25 L 428.789062 331.175781 L 428.019531 331.175781 C 426.703125 334.089844 424.734375 336.84375 422.109375 339.441406 C 419.480469 342.042969 416.210938 344.152344 412.300781 345.78125 C 408.390625 347.40625 403.78125 348.21875 398.46875 348.21875 "/>
<path fill-rule="nonzero" fill="rgb(52.801514%, 81.245422%, 23.277283%)" fill-opacity="1" d="M 497.660156 337.773438 C 503.824219 337.773438 509.078125 336.101562 513.417969 332.761719 C 517.757812 329.421875 521.085938 324.824219 523.394531 318.972656 C 525.707031 313.121094 526.863281 306.480469 526.863281 299.058594 C 526.863281 291.636719 525.722656 285.042969 523.4375 279.273438 C 521.15625 273.507812 517.828125 268.984375 513.460938 265.699219 C 509.09375 262.417969 503.824219 260.773438 497.660156 260.773438 C 491.550781 260.773438 486.3125 262.390625 481.941406 265.613281 C 477.574219 268.839844 474.25 273.335938 471.964844 279.101562 C 469.679688 284.871094 468.539062 291.523438 468.539062 299.058594 C 468.539062 306.652344 469.679688 313.363281 471.964844 319.1875 C 474.25 325.011719 477.574219 329.5625 481.941406 332.847656 C 486.3125 336.132812 491.550781 337.773438 497.660156 337.773438 M 499.203125 348.222656 C 493.71875 348.222656 489.023438 347.234375 485.113281 345.265625 C 481.199219 343.296875 477.972656 340.8125 475.433594 337.8125 C 472.890625 334.816406 470.90625 331.71875 469.480469 328.523438 L 468.453125 328.523438 L 468.453125 346.25 L 457.320312 346.25 L 457.320312 218.636719 L 468.796875 218.636719 L 468.796875 269.769531 L 469.566406 269.769531 C 470.9375 266.628906 472.878906 263.574219 475.390625 260.605469 C 477.902344 257.636719 481.097656 255.179688 484.984375 253.238281 C 488.867188 251.296875 493.578125 250.324219 499.113281 250.324219 C 506.9375 250.324219 513.804688 252.367188 519.714844 256.449219 C 525.621094 260.53125 530.234375 266.242188 533.546875 273.578125 C 536.855469 280.917969 538.511719 289.4375 538.511719 299.144531 C 538.511719 308.964844 536.871094 317.546875 533.589844 324.882812 C 530.304688 332.21875 525.707031 337.941406 519.796875 342.054688 C 513.890625 346.164062 507.023438 348.222656 499.203125 348.222656 "/>
</svg>
