<?xml version="1.0" encoding="UTF-8"?>
<svg xmlns="http://www.w3.org/2000/svg" xmlns:xlink="http://www.w3.org/1999/xlink" width="523.9" height="397.2" viewBox="21.51 84.85 523.91 397.24">
<path fill-rule="nonzero" fill="rgb(100%, 100%, 100%)" fill-opacity="1" d="M 475.171875 283.394531 L 475.171875 411.800781 L 373.269531 411.800781 L 373.269531 283.394531 C 373.269531 233.851562 332.945312 193.578125 283.40625 193.578125 C 233.863281 193.578125 193.585938 233.851562 193.585938 283.394531 L 193.585938 475.164062 L 91.6875 475.164062 L 91.6875 283.394531 C 91.6875 177.515625 177.527344 91.679688 283.40625 91.679688 C 389.332031 91.679688 475.171875 177.515625 475.171875 283.394531 "/>
<path fill-rule="nonzero" fill="rgb(52.801514%, 81.245422%, 23.277283%)" fill-opacity="1" d="M 74.226562 475.164062 L 28.34375 475.164062 L 28.34375 429.28125 L 74.226562 429.28125 Z M 74.226562 475.164062 "/>
<path fill-rule="nonzero" fill="rgb(52.801514%, 81.245422%, 23.277283%)" fill-opacity="1" d="M 538.515625 429.300781 L 211.042969 429.300781 L 211.042969 475.179688 L 538.515625 475.179688 Z M 538.515625 429.300781 "/>
</svg>
